# xmcd CD database file
#
# Track frame offsets:
#	150
#	10902
#	22137
#	33402
#	43052
#	55600
#	75005
#	86230
#	98012
#	109687
#	119870
#	130670
#	141185
#	151522
#	162145
#	172777
#	187725
#	200082
#	212095
#	223905
#	234975
#	246115
#	255685
#	266855
#	277040
#
# Disc length: 3825 seconds
#
# Revision: 2
# Processed by: cddbd v1.5.2PL0 Copyright (c) Steve Scherf et al.
# Submitted via: CDex 1.70beta2
#
DISCID=570eef19
DTITLE=Paul Anka - THE Best of PAUL ANKA
DYEAR=1900
DGENRE=Pop
TTITLE0=Diana
TTITLE1=Crazy Love
TTITLE2=You Are My Destiny
TTITLE3=My Home Town
TTITLE4=Puppy Love
TTITLE5=My Way
TTITLE6=Lonely Boy
TTITLE7=Put Your Head On My Shoulder
TTITLE8=She's A Lady
TTITLE9=Eso Beso
TTITLE10=Ogni Volta
TTITLE11=Love Me Warm And Tender
TTITLE12=A Steel Guitar And A Glass Of Wine
TTITLE13=Every Night Without You
TTITLE14=Did You Have A Happy Birthday
TTITLE15=Goodnight My Love
TTITLE16=In The Still Of The Night
TTITLE17=Sincerely
TTITLE18=Happy
TTITLE19=Summer's Gone
TTITLE20=I Love You, Baby
TTITLE21=Hurry Up And Tell Me
TTITLE22=Laugh, Laugh, Laugh
TTITLE23=In My Imagination
TTITLE24=Cindy Go Home
EXTD=
EXTT0=
EXTT1=
EXTT2=
EXTT3=
EXTT4=
EXTT5=
EXTT6=
EXTT7=
EXTT8=
EXTT9=
EXTT10=
EXTT11=
EXTT12=
EXTT13=
EXTT14=
EXTT15=
EXTT16=
EXTT17=
EXTT18=
EXTT19=
EXTT20=
EXTT21=
EXTT22=
EXTT23=
EXTT24=
PLAYORDER=
